<svg xmlns="http://www.w3.org/2000/svg" viewBox="0 0 440 440" fill="none" shape-rendering="auto"><metadata xmlns:rdf="http://www.w3.org/1999/02/22-rdf-syntax-ns#" xmlns:xsi="http://www.w3.org/2001/XMLSchema-instance" xmlns:dc="http://purl.org/dc/elements/1.1/" xmlns:dcterms="http://purl.org/dc/terms/"><rdf:RDF><rdf:Description><dc:title>Face Generator</dc:title><dc:creator>The Visual Team</dc:creator><dc:source xsi:type="dcterms:URI">https://www.figma.com/community/file/986078800058673824</dc:source><dcterms:license xsi:type="dcterms:URI">https://creativecommons.org/licenses/by/4.0/</dcterms:license><dc:rights>Remix of „Face Generator” (https://www.figma.com/community/file/986078800058673824) by „The Visual Team”, licensed under „CC BY 4.0” (https://creativecommons.org/licenses/by/4.0/)</dc:rights></rdf:Description></rdf:RDF></metadata><mask id="viewboxMask"><rect width="440" height="440" rx="0" ry="0" x="0" y="0" fill="#fff" /></mask><g mask="url(#viewboxMask)"><g transform="matrix(.71048 0 0 .71048 24 2)"><g fill="#e8e1e1"><path d="M287.2 100H277c-101.3 0-183.4 94-183.4 210 0 116.1 82.1 129.5 183.4 129.5h10.2c101.3 0 183.4-13.4 183.4-129.4S388.5 100 287.2 100Z"/><path d="M116.6 74.4c66.4-6.4 94 60 99.5 94 10.3 21.5 24.8 105 0 267C185 638-8 550 12 539s56.5-84.5 19-205.5 2.5-251 85.5-259ZM448.8 74.4c-66.4-6.4-94 60-99.5 94-10.3 21.5-24.8 105 0 267 31 202.5 224 114.5 204 103.5s-56.5-84.5-19-205.5-2.5-251-85.5-259Z"/></g></g><g transform="translate(81.7 150.7) scale(.71856)"><circle cx="190.2" cy="167.2" r="121.2" fill="#da9969"/><path fill="#da9969" d="M69 164.5h242.4v191.2H69z"/><path d="M69 336h242v20H69v-20Z" fill="#000" fill-opacity=".2"/></g><g transform="translate(199.5 333.4) scale(.71856)"><path d="M81.8 35.3c0 17-24.3 4-54.2 4-30 0-54.3 13-54.3-4 0-16.9 24.3-30.5 54.3-30.5 30 0 54.2 13.6 54.2 30.5Z" fill="#DE8383"/><path fill-rule="evenodd" clip-rule="evenodd" d="M-23.6 42.4C-16.2 30.6 4 22 27.6 22c23.6 0 43.7 8.6 51.1 20.4-4.2 2.8-12.3 1.5-22.8-.2a178 178 0 0 0-28.3-2.8A178 178 0 0 0-.8 42.2c-10.5 1.7-18.6 3-22.8.2Z" fill="#C06E6E"/><path fill-rule="evenodd" clip-rule="evenodd" d="M74.7 20.3h-94.3c9.3-9.3 27-15.5 47.2-15.5 20.2 0 37.8 6.2 47.1 15.5Z" fill="#F9F9F9"/></g><g transform="translate(280.7 235.4) scale(.71856)"><rect x="22" y="19" width="88.1" height="88.1" rx="44.1" fill="#da9969"/><path d="m79 38.5-39 29L83.5 87" stroke="#000" stroke-opacity=".2" stroke-width="5" stroke-linecap="round" stroke-linejoin="round"/></g><g transform="matrix(-.71856 0 0 .71856 161.5 235.4)"><rect x="22" y="19" width="88.1" height="88.1" rx="44.1" fill="#da9969"/><path d="m79 38.5-39 29L83.5 87" stroke="#000" stroke-opacity=".2" stroke-width="5" stroke-linecap="round" stroke-linejoin="round"/></g><g transform="translate(114.8 215.5) scale(.71856)"><ellipse cx="93.3" cy="94.7" rx="20.8" ry="33.9" fill="#fff"/><ellipse cx="192.1" cy="94.7" rx="20.8" ry="33.9" fill="#fff"/><ellipse cx="93.3" cy="94.7" rx="16.4" ry="27.4" fill="#000"/><ellipse cx="192.1" cy="94.7" rx="16.4" ry="27.4" fill="#000"/><path d="M64 44.4A54 54 0 0 1 93.4 36c16.3 0 31.4 7 29.4 8.4 0 16.2-3 0-28.5 0-27.4 0-30.3 16.2-30.3 0ZM166 44.4a54 54 0 0 1 29.4-8.4c16.3 0 31.4 7 29.4 8.4 0 16.2-3 0-28.5 0-27.4 0-30.3 16.2-30.3 0Z" fill="#000"/></g><g transform="translate(127.7 288.7) scale(.71856)"></g><g transform="translate(193 279.4) scale(.71856)"><path d="M42.4 22c-.7 5.4-3 16.3-7.1 17-5 1-11-8-13.1-2-2 6 12 21.2 22.2 18.2" stroke="#000" stroke-opacity=".5" stroke-width="3.7" stroke-linecap="round" stroke-linejoin="round"/></g><g transform="matrix(.52237 0 0 .52237 122.9 244.8)"><path d="M32.5 87.5C8.1 87.5 2.5 32.5 5 4h27.5c-6.2 16-3.2 29.8-1.5 47 2 20 21.3 5.1 25.4-2.7.5 15.6-12 39.2-23.9 39.2Z" fill="#e8e1e1"/></g><g transform="matrix(-.52237 0 0 .52237 315.7 244.8)"><path d="M32.5 87.5C8.1 87.5 2.5 32.5 5 4h27.5c-6.2 16-3.2 29.8-1.5 47 2 20 21.3 5.1 25.4-2.7.5 15.6-12 39.2-23.9 39.2Z" fill="#e8e1e1"/></g><g transform="matrix(.52237 0 0 .52237 108.7 145.6)"><g fill="#e8e1e1"><path d="M276 196.5a63.5 63.5 0 0 0-18.6-45c-5.9-5.8-12.9-61-20.6-64.2a63.5 63.5 0 0 0-48.6 0c-7.7 3.2-14.7 58.4-20.6 64.3a63.5 63.5 0 0 0-18.6 44.9h127Z"/><path d="M374 132c6.5 15.9 11.5 34.5 11.5 70-11 0-38.5 11-92.5-18-54.8-29.5-68.9-59.5-82-79-13 27-37 51.3-72.5 73.5C103 200.7 54.2 199.5 38 202c0-23.1 2-46 10.9-67.4A176 176 0 0 1 211 26a175 175 0 0 1 124 51.5c16.4 16.4 30.2 33.1 39 54.5Z"/></g></g></g></svg>