<svg xmlns="http://www.w3.org/2000/svg" viewBox="0 0 440 440" fill="none" shape-rendering="auto"><metadata xmlns:rdf="http://www.w3.org/1999/02/22-rdf-syntax-ns#" xmlns:xsi="http://www.w3.org/2001/XMLSchema-instance" xmlns:dc="http://purl.org/dc/elements/1.1/" xmlns:dcterms="http://purl.org/dc/terms/"><rdf:RDF><rdf:Description><dc:title>Face Generator</dc:title><dc:creator>The Visual Team</dc:creator><dc:source xsi:type="dcterms:URI">https://www.figma.com/community/file/986078800058673824</dc:source><dcterms:license xsi:type="dcterms:URI">https://creativecommons.org/licenses/by/4.0/</dcterms:license><dc:rights>Remix of „Face Generator” (https://www.figma.com/community/file/986078800058673824) by „The Visual Team”, licensed under „CC BY 4.0” (https://creativecommons.org/licenses/by/4.0/)</dc:rights></rdf:Description></rdf:RDF></metadata><mask id="viewboxMask"><rect width="440" height="440" rx="0" ry="0" x="0" y="0" fill="#fff" /></mask><g mask="url(#viewboxMask)"><g transform="matrix(.71048 0 0 .71048 24 2)"><path d="M131.5 150.4c-30.2 28.5-103.6 121.5 0 245.1 27.7 33 248.2 11.2 271 0C492.8 351 436 132.7 262.8 163c-80.6 14-93-48.6-131.3-12.5Z" fill="#e8e1e1"/></g><g transform="translate(81.7 150.7) scale(.71856)"><path d="M293.1 88.7C258 38.7 171.6 25.4 120.3 58 69 91 57.5 145.2 65 204.8c3.1 24.1 7 43 9 63.5 6.6 63.2 93 94.7 118.6 94.7 40.4 0 108.3-44.3 116.8-94.7 7.7-46 7-42.4 7.5-63.5.6-21 11.3-66.1-23.9-116.1Z" fill="#da9969"/><path d="M76.2 279.7c22.6 47.6 92.6 71.3 115.6 71.3 39 0 102.8-38.9 118-85.2l-.5 2.8C301 319 233 363.5 192.6 363.5c-24 0-101.7-27.9-116.4-83.8Z" fill="#000" fill-opacity=".2"/></g><g transform="translate(199.5 333.4) scale(.71856)"><path d="M59.7 22.3a31 31 0 0 1-62 0c0-17 13.9-4 31-4 17 0 31-13 31 4Z" fill="#DE8383"/></g><g transform="translate(280.7 235.4) scale(.71856)"><rect x="30" y="23" width="80" height="80" rx="21.3" fill="#da9969"/><rect x="38.9" y="31.9" width="42.6" height="62.2" rx="12.4" fill="#000" fill-opacity=".2"/><rect x="30" y="46.1" width="17.8" height="35.5" rx="8.9" fill="#da9969"/></g><g transform="matrix(-.71856 0 0 .71856 161.5 235.4)"><rect x="30" y="23" width="80" height="80" rx="21.3" fill="#da9969"/><rect x="38.9" y="31.9" width="42.6" height="62.2" rx="12.4" fill="#000" fill-opacity=".2"/><rect x="30" y="46.1" width="17.8" height="35.5" rx="8.9" fill="#da9969"/></g><g transform="translate(114.8 215.5) scale(.71856)"><g stroke="#000" stroke-linecap="round"><path d="M222 49c-4.2 3.4-10.8 10.1-23.7 10.1a30 30 0 0 1-21.8-10" stroke-width="8.3"/><path d="M222 89c-4.2 3.4-10.8 10.1-23.7 10.1a30 30 0 0 1-21.8-10" stroke-width="4.1"/><path d="M110.6 49c-4.3 3.4-11 10.1-23.8 10.1A30 30 0 0 1 65 49" stroke-width="8.3"/><path d="M110.6 89c-4.3 3.4-11 10.1-23.8 10.1a30 30 0 0 1-21.8-10" stroke-width="4.1"/></g></g><g transform="translate(127.7 288.7) scale(.71856)"></g><g transform="translate(193 279.4) scale(.71856)"><g fill="#000" fill-opacity=".2"><rect x="25.9" y="51.5" width="11.7" height="8.9" rx="4.4" transform="rotate(-90 25.9 51.5)"/><rect x="43.7" y="51.5" width="11.7" height="8.9" rx="4.4" transform="rotate(-90 43.7 51.5)"/><path d="M61.2 41.4c.2-.8.2-1.7.2-2.5C61.4 29.6 54 22 44.5 22H34a16.9 16.9 0 0 0-16.7 19.4A16.9 16.9 0 0 1 33.9 27h10.6C53 27 60 33.2 61.2 41.4Z"/></g></g><g transform="matrix(.52237 0 0 .52237 122.9 244.8)"><path d="M18 31.8C17.3 12.2 15 2.3 32 0c19.6 3.6 14 22.6 12 31.8-2.2 9.3 9.5 19 7.4 39.4-2 20.4-25 30-36 12.8-14-22 3.5-32.6 2.7-52.2Z" fill="#e8e1e1"/></g><g transform="matrix(-.52237 0 0 .52237 315.7 244.8)"><path d="M18 31.8C17.3 12.2 15 2.3 32 0c19.6 3.6 14 22.6 12 31.8-2.2 9.3 9.5 19 7.4 39.4-2 20.4-25 30-36 12.8-14-22 3.5-32.6 2.7-52.2Z" fill="#e8e1e1"/></g><g transform="matrix(.52237 0 0 .52237 108.7 145.6)"><g fill="#e8e1e1"><path d="M374 131c6.5 15.9 11.5 34.5 11.5 70-11 0-38.5 11-92.5-18-54.8-29.5-68.9-59.5-82-79-13 27-37 51.3-72.5 73.5C103 199.7 54.2 198.5 38 201c0-23.1 2-46 10.9-67.4A176 176 0 0 1 211 25a175 175 0 0 1 124 51.5c16.4 16.4 30.2 33.1 39 54.5Z"/><path d="M302 77c-11.6-28.6-41.2-46.3-87-39.6-30.2 3.7-48.3 24.3-67.4 39.6-19.2 15.3-44.3 49.6-24.2 83.5 20.1 33.8 163.5 72.5 212.8 6.7 26.6-35.6-22.6-61.6-34.2-90.2Z"/></g></g></g></svg>