<svg xmlns="http://www.w3.org/2000/svg" viewBox="0 0 440 440" fill="none" shape-rendering="auto"><metadata xmlns:rdf="http://www.w3.org/1999/02/22-rdf-syntax-ns#" xmlns:xsi="http://www.w3.org/2001/XMLSchema-instance" xmlns:dc="http://purl.org/dc/elements/1.1/" xmlns:dcterms="http://purl.org/dc/terms/"><rdf:RDF><rdf:Description><dc:title>Face Generator</dc:title><dc:creator>The Visual Team</dc:creator><dc:source xsi:type="dcterms:URI">https://www.figma.com/community/file/986078800058673824</dc:source><dcterms:license xsi:type="dcterms:URI">https://creativecommons.org/licenses/by/4.0/</dcterms:license><dc:rights>Remix of „Face Generator” (https://www.figma.com/community/file/986078800058673824) by „The Visual Team”, licensed under „CC BY 4.0” (https://creativecommons.org/licenses/by/4.0/)</dc:rights></rdf:Description></rdf:RDF></metadata><mask id="viewboxMask"><rect width="440" height="440" rx="0" ry="0" x="0" y="0" fill="#fff" /></mask><g mask="url(#viewboxMask)"><g transform="matrix(.71048 0 0 .71048 24 2)"><g fill="#b58143"><path d="M75.1 204.2c-7-30.3 21.3-27.4 61.7-65.4 40.4-38 87.4-58.9 169-57.6 81.8 1.2 135.8 55.2 147.7 66 36.2 47.6 10.8 40.6 37.7 57 33.6 20.4 42.6 51.1 16.2 81.8-26.3 30.7-5 15.3 28.7 45s-10.8 56.9-21 82.4c-10.3 25.6 27.5 11.8 27.5 63.6 0 19.5-25 39-79 53-62.9 16.3-176.5 31.5-326.8 0-21.8-4.6-64.8-23.5-83.7-40-19-16.5-24.6-66.9 12-94.5 36.6-27.6 15.6-39-5-64.5-20.4-25.6-11-52.6 25.5-77.2 36.6-24.5-1.7-11.8-10.5-49.6Z"/><ellipse cx="294.1" cy="463.5" rx="250.5" ry="123.5"/></g></g><g transform="translate(81.7 150.7) scale(.71856)"><path d="M309 148H71v124h.3v1.3c0 29.8 53.3 77.4 119 77.4 65.8 0 119.1-47.6 119.1-77.4 0-1.6-.1-3.1-.4-4.7V148Z" fill="#c07f50"/><path d="M71.2 253.6v.9-.9ZM71.2 254.5v18.8c0 29.8 53.4 77.4 119.1 77.4 65.8 0 119.1-47.6 119.1-77.4v-19.7.9c0 29.9-53.3 77.4-119 77.4-65.8 0-119.1-47.5-119.2-77.4Z" fill="#000" fill-opacity=".2"/><path d="M309 152.5c0 55.9-54.2 101.8-120 101.8-65.7 0-119-45.3-119-101.2C70 97.3 123.3 52 189 52c65.8 0 120 44.6 120 100.5Z" fill="#c07f50"/></g><g transform="translate(199.5 333.4) scale(.71856)"><path d="M60.9 25c0 17-14.8 30.6-33 30.6C9.5 55.6-5.3 42-5.3 25.1c0-16.9 4.4-14.9 33-14.9 26.5 0 33-2 33 14.9Z" fill="#F9F9F9"/></g><g transform="translate(280.7 235.4) scale(.71856)"><path d="M24 43.3C24 31.5 33.5 22 45.3 22h37.2c11.8 0 21.4 9.5 21.4 21.3v37.3c0 11.8-9.6 21.4-21.4 21.4H45.3A21.3 21.3 0 0 1 24 80.6V43.3Z" fill="#c07f50"/><path d="M32.9 62A31 31 0 1 1 95 62a31 31 0 1 1-62.1 0Z" fill="#000" fill-opacity=".2"/></g><g transform="matrix(-.71856 0 0 .71856 161.5 235.4)"><path d="M24 43.3C24 31.5 33.5 22 45.3 22h37.2c11.8 0 21.4 9.5 21.4 21.3v37.3c0 11.8-9.6 21.4-21.4 21.4H45.3A21.3 21.3 0 0 1 24 80.6V43.3Z" fill="#c07f50"/><path d="M32.9 62A31 31 0 1 1 95 62a31 31 0 1 1-62.1 0Z" fill="#000" fill-opacity=".2"/></g><g transform="translate(114.8 215.5) scale(.71856)"><circle cx="199" cy="93.3" r="11.6" fill="#161616"/><circle cx="91" cy="93.3" r="11.6" fill="#161616"/><path d="M175 68.2c4.4-3 11-9.2 24.1-9.2 11.1 0 20.4 6.8 22.1 9.2M67 68.2c4.4-3 11-9.2 24.1-9.2 11.1 0 20.4 6.8 22.1 9.2" stroke="#000" stroke-width="9.2" stroke-linecap="round"/></g><g transform="translate(127.7 288.7) scale(.71856)"><g fill="#000" fill-opacity=".2"><rect x="33" y="38.5" width="12.9" height="12.9" rx="6.4"/><rect x="57.1" y="24" width="12.9" height="14.5" rx="6.4"/><rect x="76.4" y="38.5" width="12.9" height="12.9" rx="6.4"/><rect x="166.4" y="38.5" width="12.9" height="12.9" rx="6.4"/><rect x="190.5" y="24" width="12.9" height="14.5" rx="6.4"/><rect x="209.8" y="38.5" width="12.9" height="12.9" rx="6.4"/></g></g><g transform="translate(193 279.4) scale(.71856)"><path d="M18.6 38.3A10 10 0 0 0 29 45a10 10 0 0 0 19.4 0h.9a10 10 0 0 0 9.5-6.7 10 10 0 0 1-10.4 13.4 10 10 0 0 1-19.4 0H28a10 10 0 0 1-9.5-13.4Z" fill="#000" fill-opacity=".2"/></g><g transform="matrix(.52237 0 0 .52237 122.9 244.8)"><path d="M26 0h-3A19 19 0 0 0 4 19v52a19 19 0 0 0 19 19h3a19 19 0 0 0 19-19V19A19 19 0 0 0 26 0Z" fill="#b58143"/></g><g transform="matrix(-.52237 0 0 .52237 315.7 244.8)"><path d="M26 0h-3A19 19 0 0 0 4 19v52a19 19 0 0 0 19 19h3a19 19 0 0 0 19-19V19A19 19 0 0 0 26 0Z" fill="#b58143"/></g><g transform="matrix(.52237 0 0 .52237 108.7 145.6)"><path d="M399 203.5a185.5 185.5 0 0 0-371 0h371Z" fill="#b58143"/></g></g></svg>