<svg xmlns="http://www.w3.org/2000/svg" viewBox="0 0 440 440" fill="none" shape-rendering="auto"><metadata xmlns:rdf="http://www.w3.org/1999/02/22-rdf-syntax-ns#" xmlns:xsi="http://www.w3.org/2001/XMLSchema-instance" xmlns:dc="http://purl.org/dc/elements/1.1/" xmlns:dcterms="http://purl.org/dc/terms/"><rdf:RDF><rdf:Description><dc:title>Face Generator</dc:title><dc:creator>The Visual Team</dc:creator><dc:source xsi:type="dcterms:URI">https://www.figma.com/community/file/986078800058673824</dc:source><dcterms:license xsi:type="dcterms:URI">https://creativecommons.org/licenses/by/4.0/</dcterms:license><dc:rights>Remix of „Face Generator” (https://www.figma.com/community/file/986078800058673824) by „The Visual Team”, licensed under „CC BY 4.0” (https://creativecommons.org/licenses/by/4.0/)</dc:rights></rdf:Description></rdf:RDF></metadata><mask id="viewboxMask"><rect width="440" height="440" rx="0" ry="0" x="0" y="0" fill="#fff" /></mask><g mask="url(#viewboxMask)"><g transform="matrix(.71048 0 0 .71048 24 2)"><path d="M42.3 359.7c7.7 52.3 73.5 107.6 170.4 85.4 30.6-18.3 99.5-17 139-9.2 39.5 7.9 85.6 33 157-14s41-161-27-212.5C437 175.7 410.4 93 289.7 93c-112.5 0-144.1 75.9-190.3 116.3a166.3 166.3 0 0 0-57 150.3Z" fill="#b58143"/></g><g transform="translate(81.7 150.7) scale(.71856)"><path d="M191 39c103.2 3 112.2 97.8 114 138.3.5 12.7 3.3 23.8 6 34.9 3.3 13 6.5 26 6 41 .5 14.7-2.3 31.1-12 51.8-12.8 27-64.4 56-114 56-52.2 0-102.3-30.5-115.6-65.1A142.3 142.3 0 0 1 64 239.5c-.6-16.8 3-29.7 6.5-42.3 1.8-6.5 3.6-13 4.8-20 .7-4.1 1.3-9.3 2-15.3C82 119 91 39 191 39Z" fill="#a66637"/><path d="M64.5 233c-1.6 16.1.3 35.5 10.9 62.9C88.7 330.5 138.8 361 191 361c49.6 0 101.2-29 114-56a105.2 105.2 0 0 0 11.3-60.2 118.6 118.6 0 0 1-11.5 38.6c-12.8 27-64.4 56-114 56-52.1 0-102.3-30.6-115.6-65.1A164.3 164.3 0 0 1 64.5 233Z" fill="#000" fill-opacity=".2"/></g><g transform="translate(199.5 333.4) scale(.71856)"><path d="M59.2 32c0 17.1-13.8 4.1-31 4.1-17 0-31 13-31-4a31 31 0 1 1 62 0Z" fill="#DE8383"/></g><g transform="translate(280.7 235.4) scale(.71856)"><rect x="20" y="22" width="88" height="88.1" rx="44" fill="#a66637"/><rect x="29.8" y="31.8" width="68.4" height="68.5" rx="34.2" fill="#000" fill-opacity=".2"/><rect x="23.9" y="49.4" width="37.2" height="37.2" rx="18.6" fill="#a66637"/></g><g transform="matrix(-.71856 0 0 .71856 161.5 235.4)"><rect x="20" y="22" width="88" height="88.1" rx="44" fill="#a66637"/><rect x="29.8" y="31.8" width="68.4" height="68.5" rx="34.2" fill="#000" fill-opacity=".2"/><rect x="23.9" y="49.4" width="37.2" height="37.2" rx="18.6" fill="#a66637"/></g><g transform="translate(114.8 215.5) scale(.71856)"><path d="M92.4 79.9a7 7 0 1 1 13.9 0v13.8a7 7 0 1 1-13.9 0V80ZM190.4 79.9a7 7 0 0 1 13.9 0v13.8a7 7 0 1 1-13.9 0V80Z" fill="#000"/><path d="M83.2 66c-.8 3 .4 10.2 11.5 13.9M181.2 66c-.8 3 .4 10.2 11.5 13.9" stroke="#000" stroke-width="4.6" stroke-linecap="round" stroke-linejoin="round"/></g><g transform="translate(127.7 288.7) scale(.71856)"><g fill="#F88888"><rect x="11" y="16" width="56.3" height="43.4" rx="21.7"/><rect x="191" y="16" width="56.3" height="43.4" rx="21.7"/></g></g><g transform="translate(193 279.4) scale(.71856)"><path d="M33.4 22c-7.1 9.5-12 31.5-7.8 33.5 4.2 2.1 10.4 0 17 0" stroke="#000" stroke-opacity=".5" stroke-width="4" stroke-linecap="round" stroke-linejoin="round"/></g><g transform="matrix(.52237 0 0 .52237 122.9 244.8)"><path d="M52 8H11v96h41V8Z" fill="#b58143"/></g><g transform="matrix(-.52237 0 0 .52237 315.7 244.8)"><path d="M52 8H11v96h41V8Z" fill="#b58143"/></g><g transform="matrix(.52237 0 0 .52237 108.7 145.6)"><g fill="#b58143"><path d="m292.5 119.2-39-41.2h-95l-36 49.3L164 115l-5.5 73.7L192 165l16.5 36.9 22.5-36.9 33 21.6-10.5-67.5h39Z"/><path d="M374 130c6.5 15.9 11.5 34.5 11.5 70-11 0-38.5 11-92.5-18-54.8-29.5-68.9-59.5-82-79-13 27-37 51.3-72.5 73.5-35.5 22.2-83.8 22.5-100 25 0-23.1 1.5-47.5 10.4-68.9A176 176 0 0 1 211 24a175 175 0 0 1 124 51.5c16.4 16.4 30.2 33.1 39 54.5Z"/></g></g></g></svg>