<svg xmlns="http://www.w3.org/2000/svg" viewBox="0 0 440 440" fill="none" shape-rendering="auto"><metadata xmlns:rdf="http://www.w3.org/1999/02/22-rdf-syntax-ns#" xmlns:xsi="http://www.w3.org/2001/XMLSchema-instance" xmlns:dc="http://purl.org/dc/elements/1.1/" xmlns:dcterms="http://purl.org/dc/terms/"><rdf:RDF><rdf:Description><dc:title>Face Generator</dc:title><dc:creator>The Visual Team</dc:creator><dc:source xsi:type="dcterms:URI">https://www.figma.com/community/file/986078800058673824</dc:source><dcterms:license xsi:type="dcterms:URI">https://creativecommons.org/licenses/by/4.0/</dcterms:license><dc:rights>Remix of „Face Generator” (https://www.figma.com/community/file/986078800058673824) by „The Visual Team”, licensed under „CC BY 4.0” (https://creativecommons.org/licenses/by/4.0/)</dc:rights></rdf:Description></rdf:RDF></metadata><mask id="viewboxMask"><rect width="440" height="440" rx="0" ry="0" x="0" y="0" fill="#fff" /></mask><g mask="url(#viewboxMask)"><g transform="matrix(.71048 0 0 .71048 24 2)"><g fill="#724133"><path d="M288.2 88.3H278C176.7 88.3 94.6 151 94.6 228.1v98.4c0 77.2 82.1 139.8 183.4 139.8h10.2c101.3 0 183.4-62.6 183.4-139.8v-98.4c0-77.2-82.1-139.8-183.4-139.8Z"/><path d="M127.1 76.8c50-43.7 238-81 278 48 38 14.5-104 177.3-104 278 0 107.5-93 181.4-210 147-65.3-19.1-74.5-95.1-57.5-147 17.5-53.3 30-45 7.5-143-9.2-40 38-84.4 63-113.5-13-41.5 11-59 23-69.5Z"/></g></g><g transform="translate(81.7 150.7) scale(.71856)"><circle cx="190.2" cy="167.2" r="121.2" fill="#f8b788"/><path fill="#f8b788" d="M69 164.5h242.4v191.2H69z"/><path d="M69 336h242v20H69v-20Z" fill="#000" fill-opacity=".2"/></g><g transform="translate(199.5 333.4) scale(.71856)"><path fill-rule="evenodd" clip-rule="evenodd" d="M59.2 13 63.7 9a3.2 3.2 0 0 1 4 5l-4.1 3.5-2.3 2a49 49 0 0 1-33.7 11.8 51 51 0 0 1-38.3-17.8 3.2 3.2 0 0 1 5-4c4 5 16.3 15.4 33.3 15.4 11 0 17.7-2.3 22.7-5.2a48 48 0 0 0 9-6.9Z" fill="#000"/></g><g transform="translate(280.7 235.4) scale(.71856)"><path d="M70.9 16A40.4 40.4 0 0 0 31 47.3V109c24.3-3.3 67.7-24.5 74-45 6.2-20.6-1-48-34.1-48Z" fill="#f8b788"/><path d="M69.3 27.7c-19 0-27 15-28.6 22.5v44.1c17.5-2.3 48.5-17.5 53-32.2 4.5-14.7-.7-34.4-24.4-34.4Z" fill="#000" fill-opacity=".2"/><path d="M52.4 62.7c0-11.3-7.8-15-11.7-15.4v33.3a18.5 18.5 0 0 0 11.7-18Z" fill="#f8b788"/></g><g transform="matrix(-.71856 0 0 .71856 161.5 235.4)"><path d="M70.9 16A40.4 40.4 0 0 0 31 47.3V109c24.3-3.3 67.7-24.5 74-45 6.2-20.6-1-48-34.1-48Z" fill="#f8b788"/><path d="M69.3 27.7c-19 0-27 15-28.6 22.5v44.1c17.5-2.3 48.5-17.5 53-32.2 4.5-14.7-.7-34.4-24.4-34.4Z" fill="#000" fill-opacity=".2"/><path d="M52.4 62.7c0-11.3-7.8-15-11.7-15.4v33.3a18.5 18.5 0 0 0 11.7-18Z" fill="#f8b788"/></g><g transform="translate(114.8 215.5) scale(.71856)"><path d="M171.2 63.2c4.3-3 11-9.2 24.1-9.2 11.1 0 20.4 6.8 22.1 9.2M71 63.2c4.4-3 11-9.2 24.1-9.2 11.1 0 20.4 6.8 22.1 9.2" stroke="#000" stroke-width="9.2" stroke-linecap="round"/><path d="M187.7 89.4a7 7 0 0 1 13.9 0v14a7 7 0 1 1-13.9 0v-14ZM87.5 89.4a7 7 0 1 1 13.9 0v14a7 7 0 0 1-13.9 0v-14Z" fill="#000"/></g><g transform="translate(127.7 288.7) scale(.71856)"><g fill="#F88888"><rect x="11" y="16" width="56.3" height="43.4" rx="21.7"/><rect x="191" y="16" width="56.3" height="43.4" rx="21.7"/></g></g><g transform="translate(193 279.4) scale(.71856)"><path d="M17.2 34.5a17 17 0 0 0-.2 2.4v3.3C17 49.5 24.6 57 33.9 57H44C53.4 57 61 49.5 61 40V37c0-.8 0-1.6-.2-2.4a16.9 16.9 0 0 1-16.7 14.4H34c-8.5 0-15.6-6.2-16.7-14.4Z" fill="#000" fill-opacity=".2"/></g><g transform="matrix(.52237 0 0 .52237 122.9 244.8)"><path d="M32.5 87.5C8.1 87.5 2.5 32.5 5 4h27.5c-6.2 16-3.2 29.8-1.5 47 2 20 21.3 5.1 25.4-2.7.5 15.6-12 39.2-23.9 39.2Z" fill="#724133"/></g><g transform="matrix(-.52237 0 0 .52237 315.7 244.8)"><path d="M32.5 87.5C8.1 87.5 2.5 32.5 5 4h27.5c-6.2 16-3.2 29.8-1.5 47 2 20 21.3 5.1 25.4-2.7.5 15.6-12 39.2-23.9 39.2Z" fill="#724133"/></g><g transform="matrix(.52237 0 0 .52237 108.7 145.6)"><path d="M375 133c6.5 15.9 11.5 34.5 11.5 70-11 0-47.9-4.6-107.3-23-59.5-18.4-101.6-50-114.7-69.5.3 6 0 34-19.7 55A124.2 124.2 0 0 1 39 203c0-23.1 2-46 10.9-67.4A176 176 0 0 1 212 27a175 175 0 0 1 124 51.5c16.4 16.4 30.2 33.1 39 54.5Z" fill="#724133"/></g></g></svg>