<svg xmlns="http://www.w3.org/2000/svg" viewBox="0 0 440 440" fill="none" shape-rendering="auto"><metadata xmlns:rdf="http://www.w3.org/1999/02/22-rdf-syntax-ns#" xmlns:xsi="http://www.w3.org/2001/XMLSchema-instance" xmlns:dc="http://purl.org/dc/elements/1.1/" xmlns:dcterms="http://purl.org/dc/terms/"><rdf:RDF><rdf:Description><dc:title>Face Generator</dc:title><dc:creator>The Visual Team</dc:creator><dc:source xsi:type="dcterms:URI">https://www.figma.com/community/file/986078800058673824</dc:source><dcterms:license xsi:type="dcterms:URI">https://creativecommons.org/licenses/by/4.0/</dcterms:license><dc:rights>Remix of „Face Generator” (https://www.figma.com/community/file/986078800058673824) by „The Visual Team”, licensed under „CC BY 4.0” (https://creativecommons.org/licenses/by/4.0/)</dc:rights></rdf:Description></rdf:RDF></metadata><mask id="viewboxMask"><rect width="440" height="440" rx="0" ry="0" x="0" y="0" fill="#fff" /></mask><g mask="url(#viewboxMask)"><g transform="matrix(.71048 0 0 .71048 24 2)"><g fill="#2c1b18"><path d="M78.2 230.7c13.5-123 115.4-184.4 208.3-180.5C428.7 56 481.7 161 488 230.7c5.4 59.7 63.3 120.8 23.8 179.3-23.5 34.9-57.4 4.4-127.4 8-2.5 45-188.5 46-196.5-6-73.8-7.7-108 24.8-118.4 17-70-53-.8-113.5 8.6-198.3Z"/><path d="M102.8 500c-32.5-21-70-73-63.5-127.9 7-37.2 164.8 28 158.8 61.8-4.7 27 22.4 59.4 36.5 72.3-4-.3-15.7-3.2-30.5-12.3-14.7-9.1-32-22.6-35-27.2a74.4 74.4 0 0 0 35 51.3 190 190 0 0 1-47.9-18c-18.5-10-27.8-32.7-29.5-42.5-.6 3.8-.6 19.4 4 30.7 8 19.3 14 24.5 29.5 36.8-8.3-3.5-31.5-8.1-57.4-25ZM466.6 495c32.5-21.2 59-62.5 59-123.2-7-37.4-160.5 22.9-154.5 56.7 4.8 27.1-22.3 59.7-36.5 72.6 4-.3 15.7-3.2 30.5-12.3 14.8-9.2 32.2-22.7 35-27.3a74.6 74.6 0 0 1-35 51.4 190 190 0 0 0 48-18c18.5-10 27.8-32.8 29.5-42.6a72 72 0 0 1-4 30.8c-8 19.3-14 24.6-29.5 36.9 8.3-3.5 31.5-8.2 57.5-25Z"/></g></g><g transform="translate(81.7 150.7) scale(.71856)"><circle cx="189.5" cy="199.5" r="133.5" fill="#da9969"/><path d="M323.3 192.3a133.8 133.8 0 0 1-267.1 0 133.7 133.7 0 1 0 267.1 0Z" fill="#000" fill-opacity=".2"/></g><g transform="translate(199.5 333.4) scale(.71856)"><path d="M59.5 28.2a31 31 0 1 1-62 0 31 31 0 0 1 62 0Z" fill="#DE8383"/></g><g transform="translate(280.7 235.4) scale(.71856)"><rect x="27" y="21" width="80" height="80" rx="21.3" fill="#da9969"/><rect x="35.9" y="29.9" width="62.2" height="62.2" rx="12.4" fill="#000" fill-opacity=".2"/><rect x="28.8" y="44.1" width="17.8" height="35.5" rx="5.3" fill="#da9969"/></g><g transform="matrix(-.71856 0 0 .71856 161.5 235.4)"><rect x="27" y="21" width="80" height="80" rx="21.3" fill="#da9969"/><rect x="35.9" y="29.9" width="62.2" height="62.2" rx="12.4" fill="#000" fill-opacity=".2"/><rect x="28.8" y="44.1" width="17.8" height="35.5" rx="5.3" fill="#da9969"/></g><g transform="translate(114.8 215.5) scale(.71856)"><path d="M178.4 52.7c3.7-2.9 9.4-8.7 20.6-8.7a26 26 0 0 1 18.8 8.7M67.4 52.7C71 49.8 76.8 44 87.9 44a26 26 0 0 1 18.9 8.7" stroke="#000" stroke-width="3.7" stroke-linecap="round"/><circle cx="88.4" cy="90.8" r="28.4" fill="#fff"/><circle cx="198.7" cy="90.8" r="28.4" fill="#fff"/><circle cx="88.4" cy="90.8" r="15.3" fill="#757575"/><circle cx="198.7" cy="90.8" r="15.3" fill="#757575"/></g><g transform="translate(127.7 288.7) scale(.71856)"><g fill="#FFC6C6"><rect x="21" y="16" width="43.4" height="43.4" rx="21.7"/><rect x="194" y="16" width="43.4" height="43.4" rx="21.7"/></g></g><g transform="translate(193 279.4) scale(.71856)"><path d="M37.8 22c-7.1 9.5-20.2 29-16 31 4.3 2 18.6 2.5 25.3 2.5" stroke="#000" stroke-opacity=".5" stroke-width="4" stroke-linecap="round" stroke-linejoin="round"/></g><g transform="matrix(.52237 0 0 .52237 122.9 244.8)"><path d="M32.5 87.5C8.1 87.5 2.5 32.5 5 4h27.5c-6.2 16-3.2 29.8-1.5 47 2 20 21.3 5.1 25.4-2.7.5 15.6-12 39.2-23.9 39.2Z" fill="#2c1b18"/></g><g transform="matrix(-.52237 0 0 .52237 315.7 244.8)"><path d="M32.5 87.5C8.1 87.5 2.5 32.5 5 4h27.5c-6.2 16-3.2 29.8-1.5 47 2 20 21.3 5.1 25.4-2.7.5 15.6-12 39.2-23.9 39.2Z" fill="#2c1b18"/></g><g transform="matrix(.52237 0 0 .52237 108.7 145.6)"><path d="M374 130c6.5 15.9 11.5 34.5 11.5 70-11 0-73.7 6-114.5-10s-46.9-28.5-60-48c-13 27-37 38-73.5 48s-83.3 7.5-99.5 10c0-23.1 2-46 10.9-67.4A176 176 0 0 1 211 24a175 175 0 0 1 124 51.5c16.4 16.4 30.2 33.1 39 54.5Z" fill="#2c1b18"/></g></g></svg>