<svg xmlns="http://www.w3.org/2000/svg" viewBox="0 0 440 440" fill="none" shape-rendering="auto"><metadata xmlns:rdf="http://www.w3.org/1999/02/22-rdf-syntax-ns#" xmlns:xsi="http://www.w3.org/2001/XMLSchema-instance" xmlns:dc="http://purl.org/dc/elements/1.1/" xmlns:dcterms="http://purl.org/dc/terms/"><rdf:RDF><rdf:Description><dc:title>Face Generator</dc:title><dc:creator>The Visual Team</dc:creator><dc:source xsi:type="dcterms:URI">https://www.figma.com/community/file/986078800058673824</dc:source><dcterms:license xsi:type="dcterms:URI">https://creativecommons.org/licenses/by/4.0/</dcterms:license><dc:rights>Remix of „Face Generator” (https://www.figma.com/community/file/986078800058673824) by „The Visual Team”, licensed under „CC BY 4.0” (https://creativecommons.org/licenses/by/4.0/)</dc:rights></rdf:Description></rdf:RDF></metadata><mask id="viewboxMask"><rect width="440" height="440" rx="0" ry="0" x="0" y="0" fill="#fff" /></mask><g mask="url(#viewboxMask)"><g transform="matrix(.71048 0 0 .71048 24 2)"><g fill="#b58143"><path d="M73 341.5c-51 49 15.7 94 55 94 0 35 78.5 51.5 121 35 14.5 26 48.5 44.3 104.5 16.5 90 5 76.7-55.4 98.7-67.5 30.8-17 62.8-56 30.8-89 0-41-1.5-79.4-30.8-106.3 11.8-40.2-18.7-80.7-77.2-80.7-39-33.8-62.2-10-93-19-92.5-27-119.2 19.2-135.5 49-22.5-15.4-73 20.1-67 63-43 26.6 12 87.1-6.5 105Z"/><path d="M149 129.5c20 9.2 28.2 35.3 30.5 46l-45.5 37c3.2-10.2.5-37.3-3.5-56.5-4-19.2-30.3-25.8-49.5-26.5a84.6 84.6 0 0 1 68 0ZM313 93c-20.6 8-30.4 33.6-33.4 44l43 39.9c-2.5-10.4 2-37.3 7.1-56.2 5.2-18.9 32-23.8 51.1-23.3a84.6 84.6 0 0 0-67.9-4.3ZM501.3 247.8c-16.5-14.6-43.7-11.5-54.4-9.4L431.3 295c8-7 34-15.5 53.1-19.6 19.2-4 35.9 17.4 44.2 34.7a84.6 84.6 0 0 0-27.3-62.3ZM49 321.7c16.4 14.6 43.6 11.5 54.3 9.4l15.6-56.6c-8 7-34 15.5-53.1 19.6-19.2 4-35.9-17.4-44.2-34.7A84.6 84.6 0 0 0 49 321.7ZM173 494.8c20.8-7 31.5-32.3 35-42.6l-41.6-41.5c2.1 10.5-3.3 37.2-9.2 56-6 18.6-32.8 22.5-52 21.3 12 6.5 38 17 67.7 6.8ZM456.4 440.4c-21.7-3.9-36.2-27.1-41.1-36.9l34.7-47.2c-.5 10.6 9 36.2 17.6 53.8 8.7 17.6 35.9 17.4 54.6 13.2a84.6 84.6 0 0 1-65.9 17.1Z"/></g></g><g transform="translate(81.7 150.7) scale(.71856)"><path d="M310 123.1H72.8v167.3c0 31 53 80.6 118.6 80.6 65.5 0 118.6-49.5 118.6-80.6V123Z" fill="#f8b788"/><path d="M72.8 269.9v.8-.8ZM72.8 270.9v19.5c0 31 53 80.6 118.6 80.6 65.5 0 118.6-49.5 118.6-80.6v-20.5.9c0 31.1-53.1 80.6-118.6 80.6C126 351.4 72.9 302 72.8 271Z" fill="#000" fill-opacity=".2"/><ellipse cx="190.5" cy="129" rx="119.5" ry="105" fill="#f8b788"/></g><g transform="translate(199.5 333.4) scale(.71856)"><path fill-rule="evenodd" clip-rule="evenodd" d="M-1.5 27.9-6 31.4a3.2 3.2 0 1 1-3.7-5.2l4-3.1 2.3-1.9c2.3-1.7 4.8-3.6 7.8-5.2a52 52 0 0 1 25.8-5.7 52.5 52.5 0 0 1 38.2 16.5 3.2 3.2 0 1 1-4.8 4 46.3 46.3 0 0 0-33.4-14c-11 0-17.7 2-22.8 4.8a48 48 0 0 0-6.9 4.6l-2 1.7Z" fill="#000"/></g><g transform="translate(280.7 235.4) scale(.71856)"><rect x="27" y="21" width="80" height="80" rx="21.3" fill="#f8b788"/><rect x="35.9" y="29.9" width="62.2" height="62.2" rx="12.4" fill="#000" fill-opacity=".2"/><rect x="28.8" y="44.1" width="17.8" height="35.5" rx="5.3" fill="#f8b788"/></g><g transform="matrix(-.71856 0 0 .71856 161.5 235.4)"><rect x="27" y="21" width="80" height="80" rx="21.3" fill="#f8b788"/><rect x="35.9" y="29.9" width="62.2" height="62.2" rx="12.4" fill="#000" fill-opacity=".2"/><rect x="28.8" y="44.1" width="17.8" height="35.5" rx="5.3" fill="#f8b788"/></g><g transform="translate(114.8 215.5) scale(.71856)"><circle cx="202.2" cy="92.6" r="11.6" fill="#161616"/><circle cx="89.2" cy="92.6" r="11.6" fill="#161616"/><path d="M177 68.2c4.4-3 11-9.2 24.1-9.2 11.1 0 20.4 6.8 22.1 9.2M64 68.2c4.4-3 11-9.2 24.1-9.2 11.1 0 20.4 6.8 22.1 9.2" stroke="#000" stroke-width="4.6" stroke-linecap="round"/><path d="M186 81c.9 2.5 4 7.8 9.2 9.2M73 81c.9 2.5 4 7.8 9.2 9.2" stroke="#000" stroke-width="4.6" stroke-linecap="round" stroke-linejoin="round"/></g><g transform="translate(127.7 288.7) scale(.71856)"></g><g transform="translate(193 279.4) scale(.71856)"><path d="M5.6 34.4a17 17 0 0 0 16.3 21.4h33.7A16.9 16.9 0 0 0 72 34.4C70 41.6 63.4 47 55.6 47H22c-7.8 0-14.4-5.3-16.3-12.5Z" fill="#000" fill-opacity=".2"/></g><g transform="matrix(.52237 0 0 .52237 122.9 244.8)"><path d="M18 31.8C17.3 12.2 15 2.3 32 0c19.6 3.6 14 22.6 12 31.8-2.2 9.3 9.5 19 7.4 39.4-2 20.4-25 30-36 12.8-14-22 3.5-32.6 2.7-52.2Z" fill="#b58143"/></g><g transform="matrix(-.52237 0 0 .52237 315.7 244.8)"><path d="M18 31.8C17.3 12.2 15 2.3 32 0c19.6 3.6 14 22.6 12 31.8-2.2 9.3 9.5 19 7.4 39.4-2 20.4-25 30-36 12.8-14-22 3.5-32.6 2.7-52.2Z" fill="#b58143"/></g><g transform="matrix(.52237 0 0 .52237 108.7 145.6)"><g fill="#b58143"><path d="M374 131c6.5 15.9 11.5 34.5 11.5 70-11 0-38.5 11-92.5-18-54.8-29.5-68.9-59.5-82-79-13 27-37 51.3-72.5 73.5C103 199.7 54.2 198.5 38 201c0-23.1 2-46 10.9-67.4A176 176 0 0 1 211 25a175 175 0 0 1 124 51.5c16.4 16.4 30.2 33.1 39 54.5Z"/><circle cx="149.5" cy="159.5" r="38.5"/><path d="M251 159.5a38.5 38.5 0 1 1-77 0c0-21.3 17.2-64 38.5-64s38.5 42.7 38.5 64Z"/><circle cx="274.5" cy="159.5" r="38.5"/></g></g></g></svg>