<svg xmlns="http://www.w3.org/2000/svg" viewBox="0 0 440 440" fill="none" shape-rendering="auto"><metadata xmlns:rdf="http://www.w3.org/1999/02/22-rdf-syntax-ns#" xmlns:xsi="http://www.w3.org/2001/XMLSchema-instance" xmlns:dc="http://purl.org/dc/elements/1.1/" xmlns:dcterms="http://purl.org/dc/terms/"><rdf:RDF><rdf:Description><dc:title>Face Generator</dc:title><dc:creator>The Visual Team</dc:creator><dc:source xsi:type="dcterms:URI">https://www.figma.com/community/file/986078800058673824</dc:source><dcterms:license xsi:type="dcterms:URI">https://creativecommons.org/licenses/by/4.0/</dcterms:license><dc:rights>Remix of „Face Generator” (https://www.figma.com/community/file/986078800058673824) by „The Visual Team”, licensed under „CC BY 4.0” (https://creativecommons.org/licenses/by/4.0/)</dc:rights></rdf:Description></rdf:RDF></metadata><mask id="viewboxMask"><rect width="440" height="440" rx="0" ry="0" x="0" y="0" fill="#fff" /></mask><g mask="url(#viewboxMask)"><g transform="matrix(.71048 0 0 .71048 24 2)"><path d="M293 197h-35a138 138 0 0 0 0 276h35a138 138 0 0 0 0-276Z" fill="#e8e1e1"/></g><g transform="translate(81.7 150.7) scale(.71856)"><path d="M190.5 37C120.6 37 64 102.1 64 182.5a170.3 170.3 0 0 0 0 3C64 265.8 120.6 361 190.5 361S317 265.8 317 185.5a182.4 182.4 0 0 0 0-3C317 102 260.4 37 190.5 37Z" fill="#f8b788"/><path d="M64 181.5v4C64 265.8 120.6 361 190.5 361S317 265.8 317 185.5v-4C315 261 259.2 353 190.5 353S65.9 261 64 181.5Z" fill="#000" fill-opacity=".2"/></g><g transform="translate(199.5 333.4) scale(.71856)"><path d="M59 19.1a31 31 0 0 1-31.5 30.6A31 31 0 0 1-3.9 19.1c0-17 4.2-14.9 31.4-14.9 25.2 0 31.5-2 31.5 15Z" fill="#DE8383"/><path fill-rule="evenodd" clip-rule="evenodd" d="M58.8 17.7H-4c.2-14.1 4.1-14 23.5-14l8 .1h7.2c18.4-.2 23.7-.2 24 14Z" fill="#F9F9F9"/><path fill-rule="evenodd" clip-rule="evenodd" d="M53.8 35.7A31.7 31.7 0 0 1 27.7 49c-11 0-20.8-5.5-26.4-13.8a42.7 42.7 0 0 1 26-7.6 42 42 0 0 1 26.5 8Z" fill="#C06E6E"/></g><g transform="translate(280.7 235.4) scale(.71856)"><rect x="21" y="21" width="88.1" height="88.1" rx="44.1" fill="#f8b788"/><path d="M87 43 42.5 84.5" stroke="#000" stroke-opacity=".2" stroke-width="5" stroke-linecap="round" stroke-linejoin="round"/></g><g transform="matrix(-.71856 0 0 .71856 161.5 235.4)"><rect x="21" y="21" width="88.1" height="88.1" rx="44.1" fill="#f8b788"/><path d="M87 43 42.5 84.5" stroke="#000" stroke-opacity=".2" stroke-width="5" stroke-linecap="round" stroke-linejoin="round"/></g><g transform="translate(114.8 215.5) scale(.71856)"><path d="M78.2 51.4c3.1-2.5 8-7.4 17.3-7.4 8 0 14.6 5.4 15.8 7.4M179.2 51.4c3-2.5 7.9-7.4 17.2-7.4 8 0 14.7 5.4 15.9 7.4" stroke="#000" stroke-width="3.7" stroke-linecap="round"/><rect x="72" y="64.7" width="43.3" height="52.9" rx="14.4" fill="#fff"/><rect x="173" y="64.7" width="43.3" height="52.9" rx="14.4" fill="#fff"/><path d="M184 76.7a12 12 0 0 1 12.2-12l10 .1a12 12 0 0 1 11.8 12V106a12 12 0 0 1-12 12h-10a12 12 0 0 1-12-12V76.7ZM83 76.7a12 12 0 0 1 12.2-12l10 .1a12 12 0 0 1 11.8 12V106a12 12 0 0 1-12 12H95a12 12 0 0 1-12-12V76.7Z" fill="#757575"/><rect x="90.6" y="76.2" width="18.6" height="29" rx="9.3" fill="#000"/><rect x="191.6" y="76.2" width="18.6" height="29" rx="9.3" fill="#000"/></g><g transform="translate(127.7 288.7) scale(.71856)"></g><g transform="translate(193 279.4) scale(.71856)"><path d="M16.6 46.2A11.3 11.3 0 0 0 28.3 61 11.3 11.3 0 0 0 50 61h1a11.3 11.3 0 0 0 10.7-15A11.3 11.3 0 0 1 50 53.9a11.3 11.3 0 0 1-21.8 0h-1c-5 0-9.2-3.1-10.7-7.6Z" fill="#000" fill-opacity=".2"/></g><g transform="matrix(.52237 0 0 .52237 122.9 244.8)"><path d="M18 31.8C17.3 12.2 15 2.3 32 0c19.6 3.6 14 22.6 12 31.8-2.2 9.3 9.5 19 7.4 39.4-2 20.4-25 30-36 12.8-14-22 3.5-32.6 2.7-52.2Z" fill="#e8e1e1"/></g><g transform="matrix(-.52237 0 0 .52237 315.7 244.8)"><path d="M18 31.8C17.3 12.2 15 2.3 32 0c19.6 3.6 14 22.6 12 31.8-2.2 9.3 9.5 19 7.4 39.4-2 20.4-25 30-36 12.8-14-22 3.5-32.6 2.7-52.2Z" fill="#e8e1e1"/></g><g transform="matrix(.52237 0 0 .52237 108.7 145.6)"><path d="M143.3 136.7c-3.5-17 23.9-29.6 38.9-33.1 15-3.6 17.8-3.6 37.4-3.6 19.6 0 63.8 6.8 62.4 30.3-1.2 18.8-21.9 18.3-32.1 15.7 4.9 8 13.2 25.9 7.5 33.8-5.7 8-18.8 1.2-24.6-3.2-.5 5.5-5.2 18-20 24.3C198 207 194 185.7 194 174c-6.6 2.3-21.9 4.6-29.6-4.2-7.7-8.9 3.3-19.6 9.7-24-8.2 3.5-28 3.9-30.7-9.2Z" fill="#e8e1e1"/><path d="M374 131c6.5 15.9 11.5 34.5 11.5 70-11 0-38.5 11-92.5-18-54.8-29.5-68.9-59.5-82-79-13 27-37 51.3-72.5 73.5C103 199.7 54.2 198.5 38 201c0-23.1 2-46 10.9-67.4A176 176 0 0 1 211 25a175 175 0 0 1 124 51.5c16.4 16.4 30.2 33.1 39 54.5Z" fill="#e8e1e1"/></g></g></svg>