<svg xmlns="http://www.w3.org/2000/svg" viewBox="0 0 440 440" fill="none" shape-rendering="auto"><metadata xmlns:rdf="http://www.w3.org/1999/02/22-rdf-syntax-ns#" xmlns:xsi="http://www.w3.org/2001/XMLSchema-instance" xmlns:dc="http://purl.org/dc/elements/1.1/" xmlns:dcterms="http://purl.org/dc/terms/"><rdf:RDF><rdf:Description><dc:title>Face Generator</dc:title><dc:creator>The Visual Team</dc:creator><dc:source xsi:type="dcterms:URI">https://www.figma.com/community/file/986078800058673824</dc:source><dcterms:license xsi:type="dcterms:URI">https://creativecommons.org/licenses/by/4.0/</dcterms:license><dc:rights>Remix of „Face Generator” (https://www.figma.com/community/file/986078800058673824) by „The Visual Team”, licensed under „CC BY 4.0” (https://creativecommons.org/licenses/by/4.0/)</dc:rights></rdf:Description></rdf:RDF></metadata><mask id="viewboxMask"><rect width="440" height="440" rx="0" ry="0" x="0" y="0" fill="#fff" /></mask><g mask="url(#viewboxMask)"><g transform="matrix(.71048 0 0 .71048 24 2)"><g fill="#c93305"><path d="M83.6 337.2c11.2 73.5 27.2 93.7 57 130.5 47.2 72.2 222.4 105.8 289-15.2 109-197.3-24.8-183.3-140.6-183.3-96 0-132.1-32-148.4 0-38-28-65.5 12.5-57 68Z"/><path d="M99.9 245c-8.8 46.2-3.7 65.5 0 69.4 47 69.5 273.3 129.3 336.2 17.4 50.4-89.6-6.7-176.2-41.5-208.4 2 2.6 7.6 12.4 4.7 29.6a34.7 34.7 0 0 1-13.5 23.8c1.3-11.8 6.1-40.5-3-59.8-11.6-24.5-23.8-33.3-36.5-39.3 6 18.7 8.2 27.7 6.5 39.3-1.7 11.5-12.1 31.7-20.1 36 3.8-14.5 4.8-36-2.2-55.5-11.3-31.4-31.5-46.1-44.8-50.6 1 2.7 6 24.3 4.3 43-2.6 29.6-13.5 39.6-17.5 44.6 4-9.5 6-25 4-43-3.5-31.2-34.1-52.4-43.6-57.5 1.5 6.6 2.1 37-4 63.7C223 123.4 211 137 198 153c3.5-9.5 2-24-4-41-5.1-14.6-10.9-17.3-15.2-22 .2 7-2.2 27.5-13 52.7-13.5 31.5-18.5 56.6-18.5 43v-43A254.4 254.4 0 0 0 100 244.9Z"/></g></g><g transform="translate(81.7 150.7) scale(.71856)"><circle cx="190.2" cy="167.2" r="121.2" fill="#da9969"/><path fill="#da9969" d="M69 164.5h242.4v191.2H69z"/><path d="M69 336h242v20H69v-20Z" fill="#000" fill-opacity=".2"/></g><g transform="translate(199.5 333.4) scale(.71856)"><path d="M58.4 36.8c0 17.1-13.9 4.2-31 4.2s-31 13-31-4.2a31 31 0 1 1 62 0Z" fill="#F9F9F9"/></g><g transform="translate(280.7 235.4) scale(.71856)"><rect x="30" y="23" width="80" height="80" rx="21.3" fill="#da9969"/><rect x="38.9" y="31.9" width="42.6" height="62.2" rx="12.4" fill="#000" fill-opacity=".2"/><rect x="30" y="46.1" width="17.8" height="35.5" rx="8.9" fill="#da9969"/></g><g transform="matrix(-.71856 0 0 .71856 161.5 235.4)"><rect x="30" y="23" width="80" height="80" rx="21.3" fill="#da9969"/><rect x="38.9" y="31.9" width="42.6" height="62.2" rx="12.4" fill="#000" fill-opacity=".2"/><rect x="30" y="46.1" width="17.8" height="35.5" rx="8.9" fill="#da9969"/></g><g transform="translate(114.8 215.5) scale(.71856)"><path d="M75 52.4c3.6-2.8 9-8.4 19.7-8.4 9 0 16.7 6.2 18 8.4M179.6 52.4c3.5-2.8 9-8.4 19.7-8.4 9 0 16.7 6.2 18 8.4" stroke="#000" stroke-width="4.2" stroke-linecap="round"/><rect x="72" y="60.4" width="49.4" height="60.4" rx="16.5" fill="#fff"/><rect x="173.6" y="60.4" width="49.4" height="60.4" rx="16.5" fill="#fff"/><rect x="81.4" y="68.8" width="30.2" height="46.7" rx="15.1" fill="#757575"/><rect x="182.9" y="68.8" width="30.2" height="46.7" rx="15.1" fill="#757575"/><rect x="88.5" y="78.4" width="16.5" height="26" rx="8.3" fill="#000"/><rect x="190" y="78.4" width="16.5" height="26" rx="8.3" fill="#000"/></g><g transform="translate(127.7 288.7) scale(.71856)"></g><g transform="translate(193 279.4) scale(.71856)"><path d="M17.2 34.5a17 17 0 0 0-.2 2.4v3.3C17 49.5 24.6 57 33.9 57H44C53.4 57 61 49.5 61 40V37c0-.8 0-1.6-.2-2.4a16.9 16.9 0 0 1-16.7 14.4H34c-8.5 0-15.6-6.2-16.7-14.4Z" fill="#000" fill-opacity=".2"/></g><g transform="matrix(.52237 0 0 .52237 122.9 244.8)"><path d="M11 103V7.5h40L11 103Z" fill="#c93305"/></g><g transform="matrix(-.52237 0 0 .52237 315.7 244.8)"><path d="M11 103V7.5h40L11 103Z" fill="#c93305"/></g><g transform="matrix(.52237 0 0 .52237 108.7 145.6)"><g fill="#c93305"><path d="M132 85.2c2.7-21 39-24.4 57.5-22.6 18.5 1.8 21.7 3 44 10.7 22.4 7.8 70.2 33 59.3 59.4-8.7 21.2-32.1 12.4-42.8 5.3 2.5 11 5 34.9-4.8 41.8-9.6 6.9-21.8-6-26.8-13.4-2.6 6-12.9 18.5-32.3 19.8-19.4 1.4-15.4-24.8-11-38-8.5-.1-26.8-3.5-32-16.7-5.4-13.2 11.3-21.2 20.3-23.5-10.7.7-33.4-6.7-31.3-22.8Z"/><path d="M375 131c6.5 15.9 11.5 34.5 11.5 70-11 0-38.5 11-92.5-18-54.8-29.5-68.9-59.5-82-79-13 27-37 51.3-72.5 73.5C104 199.7 55.2 198.5 39 201c0-23.1 2-46 10.9-67.4A176 176 0 0 1 212 25a175 175 0 0 1 124 51.5c16.4 16.4 30.2 33.1 39 54.5Z"/></g></g></g></svg>